<?xml version="1.0" standalone="no"?><!-- Generator: Gravit.io --><svg xmlns="http://www.w3.org/2000/svg" xmlns:xlink="http://www.w3.org/1999/xlink" style="isolation:isolate" viewBox="0 0 100 100" width="100" height="100"><defs><clipPath id="_clipPath_8gDBweUnm97z1bUZZ8dhBse14YjkmGUk"><rect width="100" height="100"/></clipPath></defs><g clip-path="url(#_clipPath_8gDBweUnm97z1bUZZ8dhBse14YjkmGUk)"><g id="24 hour"><path d=" M 99.5 50 C 99.5 77.339 77.335 99.5 50 99.5 C 22.658 99.5 0.5 77.339 0.5 50 C 0.5 22.663 22.658 0.5 50 0.5 C 77.335 0.5 99.5 22.663 99.5 50 Z " fill="rgb(82,173,129)"/><path d=" M 28.934 33.097 L 29.309 33.433 C 29.384 33.497 29.445 33.573 29.493 33.657 L 29.957 34.488 C 29.984 34.536 30.005 34.586 30.019 34.638 L 30.51 36.103 C 30.517 36.135 30.53 36.17 30.53 36.204 L 30.987 38.437 L 31.342 40.597 C 31.349 40.629 31.349 40.66 31.349 40.695 L 31.424 42.134 C 31.431 42.226 31.417 42.318 31.397 42.408 L 31.206 43.082 C 31.165 43.217 31.096 43.341 31.001 43.443 L 31.001 43.443 C 30.871 43.583 30.694 43.675 30.503 43.703 L 29.432 43.867 C 29.411 43.869 29.391 43.871 29.377 43.873 L 27.938 43.994 C 27.706 44.013 27.494 44.125 27.344 44.303 L 26.812 44.946 C 26.737 45.04 26.676 45.15 26.648 45.268 L 26.178 46.962 C 26.157 47.048 26.144 47.134 26.15 47.222 L 26.246 49.99 C 26.246 50.012 26.246 50.034 26.246 50.056 L 26.669 53.837 C 26.676 53.869 26.676 53.903 26.683 53.937 L 27.501 57.459 C 27.515 57.5 27.522 57.538 27.542 57.576 L 28.47 59.974 C 28.504 60.062 28.552 60.144 28.613 60.214 L 29.439 61.207 C 29.555 61.35 29.725 61.453 29.909 61.497 L 30.694 61.677 C 30.844 61.711 30.987 61.707 31.131 61.665 L 32.563 61.251 C 32.611 61.237 32.652 61.227 32.7 61.223 L 32.843 61.207 C 33.102 61.175 33.368 61.267 33.552 61.455 L 33.818 61.721 C 33.866 61.771 33.914 61.827 33.948 61.889 L 34.589 62.978 C 34.623 63.034 34.651 63.096 34.671 63.158 L 35.292 65.148 C 35.299 65.168 35.306 65.186 35.312 65.206 L 35.817 67.307 C 35.824 67.337 35.824 67.371 35.831 67.403 L 36.022 68.981 C 36.029 69.026 36.029 69.073 36.029 69.119 L 36.001 69.895 C 35.995 70.079 35.926 70.254 35.81 70.398 L 35.66 70.59 C 35.524 70.766 35.319 70.88 35.094 70.91 L 33.225 71.156 C 33.157 71.164 33.095 71.166 33.027 71.16 L 30.482 70.954 C 30.387 70.944 29.787 70.862 29.302 70.694 L 28.627 70.394 C 28.436 70.32 28.265 70.219 28.108 70.097 C 27.972 69.993 27.801 69.877 27.44 69.503 C 27.426 69.487 27.413 69.469 27.399 69.453 L 26.376 68.174 C 26.335 68.122 26.096 67.762 26.069 67.7 L 24.411 64.447 C 24.39 64.409 24.377 64.371 24.363 64.331 L 22.849 59.699 C 22.842 59.673 22.835 59.645 22.828 59.619 L 21.703 54.583 C 21.689 54.555 21.689 54.527 21.682 54.497 L 21.136 49.93 C 21.136 49.905 21.13 49.884 21.13 49.86 L 20.973 45.865 C 20.973 45.818 20.973 45.773 20.979 45.726 L 21.416 42.201 C 21.423 42.16 21.43 42.118 21.437 42.078 L 22.228 39.192 C 22.235 39.166 22.248 39.14 22.255 39.114 L 23.108 36.868 C 23.128 36.81 23.156 36.758 23.19 36.706 L 24.165 35.187 C 24.213 35.118 24.268 35.056 24.329 35.002 L 25.236 34.214 C 25.305 34.156 25.38 34.106 25.468 34.072 L 27.29 33.305 C 27.365 33.271 27.447 33.249 27.535 33.241 L 28.934 33.097 L 28.934 33.097" fill-rule="evenodd" fill="rgb(255,255,255)"/><path d=" M 31.663 32.336 L 32.133 32.598 C 32.181 32.624 32.222 32.662 32.256 32.705 L 32.754 33.333 C 32.795 33.379 32.816 33.431 32.836 33.487 L 33.136 34.596 L 33.573 36.137 L 33.996 37.638 C 34.003 37.664 34.003 37.688 34.009 37.715 L 34.146 39.194 L 34.262 40.837 L 34.296 42.224 C 34.296 42.27 34.289 42.316 34.275 42.36 L 34.023 43.204 C 33.982 43.328 33.887 43.431 33.771 43.479 L 33.143 43.725 C 33.082 43.751 33.013 43.761 32.938 43.753 L 32.379 43.691 C 32.215 43.675 32.079 43.565 32.017 43.409 L 32.017 43.409 C 31.997 43.345 31.99 43.275 31.997 43.204 L 32.072 42.666 C 32.079 42.646 32.079 42.626 32.079 42.604 L 32.072 41.635 L 32.024 40.474 C 32.024 40.463 32.024 40.449 32.017 40.435 L 31.854 39.205 L 31.683 37.966 C 31.683 37.961 31.683 37.953 31.683 37.945 L 31.465 36.842 C 31.465 36.828 31.465 36.814 31.458 36.802 L 31.171 35.817 C 31.165 35.807 31.165 35.795 31.158 35.785 L 30.817 34.896 C 30.817 34.882 30.81 34.868 30.81 34.854 L 30.598 34.092 C 30.592 34.043 30.564 34 30.537 33.958 L 30.141 33.383 C 30.114 33.343 30.094 33.301 30.08 33.255 L 30.032 33.073 C 29.984 32.917 30.032 32.748 30.155 32.641 L 30.175 32.623 C 30.223 32.579 30.285 32.544 30.346 32.527 L 30.899 32.373 C 30.933 32.362 30.96 32.356 31.001 32.356 L 31.663 32.336 L 31.663 32.336" fill-rule="evenodd" fill="rgb(255,255,255)"/><path d=" M 39.044 69.859 L 39.283 69.187 C 39.29 69.165 39.296 69.141 39.303 69.119 L 39.426 68.418 C 39.433 68.38 39.433 68.34 39.433 68.3 L 39.33 67.311 C 39.33 67.295 39.324 67.281 39.324 67.265 L 39.085 66.16 L 38.778 64.693 C 38.771 64.675 38.764 64.657 38.757 64.639 L 38.273 63.266 C 38.266 63.254 38.266 63.244 38.259 63.234 L 37.577 61.725 C 37.57 61.697 37.55 61.671 37.536 61.647 L 36.704 60.524 C 36.677 60.488 36.643 60.456 36.609 60.43 L 35.865 59.906 C 35.776 59.837 35.653 59.812 35.537 59.833 L 34.862 59.96 C 34.801 59.971 34.746 59.996 34.692 60.032 L 34.316 60.3 C 34.166 60.404 34.098 60.592 34.153 60.766 L 34.194 60.928 C 34.207 60.962 34.221 60.994 34.234 61.024 L 34.569 61.603 L 35.101 62.457 C 35.108 62.472 35.115 62.485 35.121 62.501 L 35.551 63.406 C 35.558 63.428 35.572 63.452 35.572 63.476 L 35.851 64.489 L 36.151 65.51 L 36.431 66.5 C 36.438 66.515 36.438 66.527 36.438 66.539 L 36.656 67.655 C 36.656 67.67 36.656 67.685 36.663 67.702 L 36.731 68.566 L 36.8 69.421 C 36.8 69.461 36.8 69.501 36.793 69.539 L 36.663 70.206 C 36.649 70.243 36.649 70.283 36.656 70.322 L 36.656 70.334 C 36.67 70.548 36.847 70.716 37.059 70.728 L 37.434 70.75 C 37.495 70.754 37.557 70.744 37.611 70.722 L 38.375 70.434 C 38.43 70.414 38.478 70.386 38.519 70.348 L 39.044 69.859 L 39.044 69.859" fill-rule="evenodd" fill="rgb(255,255,255)"/><path d=" M 76.81 45.889 C 76.674 44.446 76.394 43.006 75.978 41.615 C 75.569 40.237 75.023 38.889 74.354 37.612 C 73.686 36.335 72.894 35.116 71.994 33.989 C 71.093 32.853 70.077 31.799 68.972 30.863 C 66.673 28.91 64.033 27.457 61.133 26.546 C 58.234 25.635 55.239 25.319 52.238 25.609 C 50.798 25.747 49.359 26.027 47.967 26.444 C 46.589 26.854 45.245 27.401 43.963 28.067 C 42.687 28.736 41.473 29.526 40.34 30.423 C 39.208 31.327 38.15 32.347 37.216 33.451 C 36.267 34.566 35.442 35.759 34.732 37.022 L 35.135 37.592 C 35.155 37.626 35.176 37.662 35.196 37.702 L 35.456 38.289 C 40.101 29.238 50.73 24.574 60.765 27.727 C 71.98 31.25 78.216 43.197 74.695 54.411 C 71.175 65.628 59.223 71.865 48.008 68.342 C 45.648 67.599 43.506 66.484 41.63 65.079 L 40.49 65.35 C 40.436 65.362 40.388 65.368 40.34 65.368 L 40.006 65.376 C 42.257 67.243 44.822 68.638 47.64 69.521 C 50.539 70.432 53.534 70.748 56.535 70.46 C 57.975 70.322 59.414 70.039 60.806 69.625 C 62.184 69.213 63.528 68.666 64.81 68 C 66.086 67.333 67.307 66.541 68.433 65.644 C 69.565 64.739 70.623 63.72 71.557 62.615 C 73.515 60.318 74.961 57.684 75.876 54.784 C 76.783 51.882 77.104 48.889 76.81 45.889" fill="rgb(255,255,255)"/><path d=" M 41.923 55.676 L 41.923 53.177 L 44.208 51.111 C 48.069 47.658 49.945 45.674 49.993 43.609 C 49.993 42.168 49.127 41.027 47.087 41.027 C 45.566 41.027 44.235 41.787 43.308 42.494 L 42.141 39.532 C 43.471 38.527 45.538 37.711 47.933 37.711 C 51.924 37.711 54.127 40.048 54.127 43.257 C 54.127 46.219 51.978 48.583 49.427 50.867 L 47.796 52.226 L 47.796 52.28 L 54.455 52.28 L 54.455 55.676 L 41.923 55.676" fill="rgb(255,255,255)"/><path d=" M 64.319 48.364 L 64.319 44.452 C 64.319 43.391 64.374 42.304 64.456 41.163 L 64.347 41.163 C 63.773 42.304 63.316 43.337 62.716 44.452 L 60.349 48.31 L 60.349 48.364 L 64.319 48.364 Z  M 64.319 55.676 L 64.319 51.465 L 56.494 51.465 L 56.494 48.773 L 63.18 38.011 L 68.235 38.011 L 68.235 48.364 L 70.357 48.364 L 70.357 51.465 L 68.235 51.465 L 68.235 55.676 L 64.319 55.676 Z " fill="rgb(255,255,255)"/><path d=" M 54.441 27.993 C 56.576 27.569 58.712 27.144 60.854 26.718 C 58.732 26.208 56.617 25.695 54.496 25.185 L 48.438 22.635 L 48.308 22.695 L 50.205 25.983 L 50.512 26.51 L 50.184 27.022 L 48.158 30.209 L 48.281 30.297 L 54.441 27.993" fill="rgb(255,255,255)"/><path d=" M 63.105 66.214 C 61.481 67.423 59.858 68.632 58.234 69.841 C 60.212 69.425 62.198 69.009 64.176 68.592 L 70.268 68.312 L 70.357 68.208 L 67.451 66.211 L 66.987 65.892 L 67.055 65.332 L 67.485 61.851 L 67.341 61.829 L 63.105 66.214" fill="rgb(255,255,255)"/></g></g></svg>