<?xml version="1.0" standalone="no"?><!-- Generator: Gravit.io --><svg xmlns="http://www.w3.org/2000/svg" xmlns:xlink="http://www.w3.org/1999/xlink" style="isolation:isolate" viewBox="0 0 100 100" width="100" height="100"><defs><clipPath id="_clipPath_AK5TvZCubGwss5FLmni3QG2Ehy6wBR7q"><rect width="100" height="100"/></clipPath></defs><g clip-path="url(#_clipPath_AK5TvZCubGwss5FLmni3QG2Ehy6wBR7q)"><g id="بوصلة"><path d=" M 99.5 50 C 99.5 77.342 77.338 99.5 50 99.5 C 22.662 99.5 0.5 77.342 0.5 50 C 0.5 22.665 22.662 0.5 50 0.5 C 77.338 0.5 99.5 22.665 99.5 50 Z " fill="rgb(206,70,32)"/><path d=" M 49.068 20.25 C 64.955 20.29 77.831 33.204 77.785 49.052 C 77.74 64.94 64.817 77.82 48.976 77.772 C 33.08 77.718 20.219 64.817 20.265 48.963 C 20.311 33.068 33.207 20.209 49.068 20.25" fill="rgb(255,255,255)"/><path d=" M 49.018 24.882 C 35.721 24.888 24.956 35.619 24.893 48.936 C 24.831 62.259 35.673 73.133 49.023 73.133 C 62.319 73.133 73.088 62.396 73.146 49.079 C 73.204 35.749 62.361 24.875 49.018 24.882" fill="rgb(206,70,32)"/><path d=" M 64.585 40.456 C 60.458 44.488 56.328 48.513 52.128 52.62 C 51.519 51.637 50.628 50.955 51.291 49.577 C 51.81 48.492 50.964 46.91 49.781 46.801 C 48.268 46.657 48.094 45.566 47.492 44.502 C 53.208 43.021 58.811 41.568 64.413 40.115 C 64.471 40.231 64.527 40.34 64.585 40.456" fill="rgb(255,255,255)"/><path d=" M 33.443 57.586 C 37.582 53.541 41.722 49.502 45.935 45.382 C 46.57 46.405 47.385 47.121 46.742 48.486 C 46.233 49.563 47.117 51.119 48.304 51.235 C 49.818 51.378 49.984 52.47 50.522 53.527 C 44.82 55.007 39.219 56.454 33.619 57.907 C 33.56 57.797 33.502 57.695 33.443 57.586" fill="rgb(255,255,255)"/><path d=" M 49.025 30.339 L 49.025 30.339 C 48.691 30.339 48.417 30.06 48.417 29.725 L 48.417 27.992 C 48.417 27.658 48.691 27.385 49.025 27.385 L 49.025 27.385 C 49.359 27.385 49.633 27.658 49.633 27.992 L 49.633 29.725 C 49.633 30.06 49.359 30.339 49.025 30.339 Z " fill="rgb(255,255,255)"/><path d=" M 62.191 35.94 L 62.191 35.94 C 61.955 35.708 61.955 35.319 62.191 35.08 L 63.418 33.852 C 63.654 33.621 64.043 33.621 64.279 33.852 L 64.279 33.852 C 64.515 34.091 64.515 34.48 64.279 34.712 L 63.05 35.94 C 62.814 36.179 62.427 36.179 62.191 35.94" fill="rgb(255,255,255)"/><path d=" M 67.537 49.216 L 67.537 49.216 C 67.537 48.881 67.81 48.608 68.144 48.608 L 69.881 48.608 C 70.216 48.608 70.488 48.881 70.488 49.216 L 70.488 49.216 C 70.488 49.55 70.216 49.823 69.881 49.823 L 68.144 49.823 C 67.81 49.823 67.537 49.55 67.537 49.216 Z " fill="rgb(255,255,255)"/><path d=" M 61.931 62.382 L 61.931 62.382 C 62.167 62.143 62.553 62.143 62.79 62.382 L 64.019 63.61 C 64.255 63.849 64.255 64.231 64.019 64.469 L 64.019 64.469 C 63.783 64.708 63.394 64.708 63.158 64.469 L 61.931 63.241 C 61.694 63.003 61.694 62.621 61.931 62.382" fill="rgb(255,255,255)"/><path d=" M 48.657 67.73 L 48.657 67.73 C 48.991 67.73 49.265 68.003 49.265 68.337 L 49.265 70.07 C 49.265 70.404 48.991 70.677 48.657 70.677 L 48.657 70.677 C 48.323 70.677 48.049 70.404 48.049 70.07 L 48.049 68.337 C 48.049 68.003 48.323 67.73 48.657 67.73 Z " fill="rgb(255,255,255)"/><path d=" M 35.491 62.123 L 35.491 62.123 C 35.728 62.361 35.728 62.743 35.491 62.982 L 34.264 64.21 C 34.027 64.449 33.64 64.449 33.403 64.21 L 33.403 64.21 C 33.167 63.971 33.167 63.589 33.403 63.351 L 34.631 62.123 C 34.867 61.884 35.254 61.884 35.491 62.123 Z " fill="rgb(255,255,255)"/><path d=" M 30.145 48.847 L 30.145 48.847 C 30.145 49.181 29.872 49.454 29.537 49.454 L 27.801 49.454 C 27.467 49.454 27.193 49.181 27.193 48.847 L 27.193 48.847 C 27.193 48.513 27.467 48.24 27.801 48.24 L 29.537 48.24 C 29.872 48.24 30.145 48.513 30.145 48.847 Z " fill="rgb(255,255,255)"/><path d=" M 35.751 35.681 L 35.751 35.681 C 35.515 35.92 35.128 35.92 34.891 35.681 L 33.664 34.453 C 33.427 34.221 33.427 33.832 33.664 33.593 L 33.664 33.593 C 33.9 33.361 34.287 33.361 34.524 33.593 L 35.751 34.821 C 35.987 35.06 35.987 35.449 35.751 35.681 Z " fill="rgb(255,255,255)"/></g></g></svg>