<?xml version="1.0" standalone="no"?><!-- Generator: Gravit.io --><svg xmlns="http://www.w3.org/2000/svg" xmlns:xlink="http://www.w3.org/1999/xlink" style="isolation:isolate" viewBox="0 0 100 100" width="100" height="100"><defs><clipPath id="_clipPath_045SXvVbnOM3Mm9YXSrPEwxHz9K2PYnU"><rect width="100" height="100"/></clipPath></defs><g clip-path="url(#_clipPath_045SXvVbnOM3Mm9YXSrPEwxHz9K2PYnU)"><g id="Group people"><path d=" M 99.5 50.001 C 99.5 77.337 77.335 99.5 50 99.5 C 22.658 99.5 0.5 77.337 0.5 50.001 C 0.5 22.663 22.658 0.5 50 0.5 C 77.335 0.5 99.5 22.663 99.5 50.001 Z " fill="rgb(107,46,152)"/><path d=" M 57.804 19.052 C 57.804 19.178 57.804 19.304 57.797 19.43 C 57.791 19.554 57.777 19.68 57.77 19.802 C 57.75 19.988 57.722 20.171 57.688 20.353 C 57.654 20.549 57.613 20.743 57.559 20.935 C 57.463 21.304 57.34 21.66 57.19 22.002 C 57.163 22.052 57.143 22.1 57.122 22.15 C 57.04 22.32 56.958 22.489 56.863 22.652 C 56.836 22.701 56.808 22.751 56.781 22.798 C 56.433 23.375 56.017 23.903 55.533 24.366 C 55.485 24.41 55.437 24.452 55.389 24.496 C 55.307 24.568 55.226 24.64 55.144 24.71 C 55.089 24.754 55.035 24.8 54.973 24.844 C 54.85 24.94 54.721 25.034 54.591 25.124 C 54.571 25.136 54.557 25.15 54.537 25.163 C 54.366 25.279 54.182 25.386 54.004 25.489 C 53.834 25.579 53.67 25.665 53.493 25.743 C 53.486 25.747 53.472 25.751 53.466 25.757 C 53.118 25.911 52.763 26.037 52.395 26.137 C 52.319 26.159 52.238 26.179 52.163 26.197 C 51.794 26.286 51.412 26.346 51.023 26.376 C 50.9 26.383 50.778 26.391 50.648 26.393 C 50.587 26.395 50.525 26.395 50.464 26.395 C 50.396 26.395 50.334 26.395 50.273 26.393 C 50.143 26.391 50.02 26.383 49.898 26.376 C 49.509 26.346 49.127 26.286 48.758 26.197 C 48.677 26.179 48.601 26.159 48.526 26.137 C 48.158 26.037 47.803 25.911 47.455 25.757 C 47.449 25.751 47.435 25.747 47.428 25.743 C 47.271 25.673 47.121 25.597 46.971 25.517 C 46.773 25.406 46.575 25.288 46.384 25.163 C 46.364 25.15 46.35 25.136 46.33 25.124 C 46.2 25.034 46.071 24.94 45.948 24.844 C 45.886 24.8 45.832 24.754 45.777 24.71 C 45.695 24.64 45.613 24.568 45.532 24.496 C 45.443 24.414 45.354 24.33 45.266 24.246 C 44.836 23.813 44.454 23.327 44.14 22.798 C 44.113 22.751 44.085 22.701 44.058 22.652 C 43.963 22.489 43.881 22.32 43.799 22.15 C 43.778 22.1 43.758 22.052 43.731 22.002 C 43.581 21.66 43.458 21.304 43.362 20.935 C 43.308 20.743 43.267 20.549 43.233 20.353 C 43.199 20.171 43.171 19.988 43.158 19.802 C 43.144 19.68 43.13 19.554 43.123 19.43 C 43.117 19.304 43.117 19.178 43.117 19.052 C 43.117 18.926 43.144 18.799 43.144 18.673 C 43.151 18.597 43.185 18.521 43.185 18.445 L 43.185 18.443 C 43.185 18.395 43.171 18.347 43.178 18.301 C 43.178 18.255 43.178 18.209 43.178 18.161 C 43.199 18.025 43.212 17.887 43.239 17.751 C 43.274 17.555 43.314 17.361 43.362 17.168 C 43.458 16.8 43.581 16.444 43.737 16.102 C 43.744 16.075 43.758 16.052 43.765 16.028 C 43.778 16.003 43.792 15.977 43.799 15.953 C 43.881 15.783 43.963 15.615 44.058 15.451 C 44.085 15.403 44.113 15.353 44.14 15.305 C 44.488 14.729 44.904 14.2 45.388 13.738 C 45.436 13.694 45.484 13.652 45.532 13.608 C 45.613 13.536 45.695 13.463 45.777 13.394 C 45.832 13.349 45.886 13.304 45.948 13.259 C 46.071 13.163 46.2 13.069 46.33 12.979 C 46.35 12.967 46.364 12.953 46.384 12.942 C 46.712 12.721 47.06 12.527 47.428 12.361 C 47.435 12.357 47.449 12.353 47.455 12.347 C 47.803 12.192 48.158 12.066 48.526 11.967 C 48.601 11.944 48.677 11.924 48.758 11.907 C 49.127 11.819 49.509 11.759 49.898 11.729 C 50.02 11.72 50.143 11.712 50.273 11.71 C 50.334 11.708 50.396 11.708 50.464 11.708 C 50.525 11.708 50.587 11.708 50.648 11.71 C 50.778 11.712 50.9 11.72 51.023 11.729 C 51.412 11.759 51.794 11.819 52.163 11.907 C 52.238 11.924 52.319 11.944 52.395 11.967 C 52.763 12.066 53.118 12.192 53.466 12.347 C 53.472 12.353 53.486 12.357 53.493 12.361 C 53.861 12.527 54.209 12.721 54.537 12.942 C 54.557 12.953 54.571 12.967 54.591 12.979 C 54.721 13.069 54.85 13.163 54.973 13.259 C 55.035 13.304 55.089 13.349 55.144 13.394 C 55.226 13.463 55.307 13.536 55.389 13.608 C 55.437 13.65 55.485 13.694 55.526 13.738 C 56.01 14.198 56.433 14.726 56.781 15.305 C 56.808 15.353 56.836 15.403 56.863 15.451 C 56.958 15.615 57.04 15.783 57.122 15.953 C 57.143 16.003 57.163 16.052 57.19 16.102 C 57.34 16.444 57.463 16.8 57.559 17.168 C 57.613 17.361 57.654 17.555 57.688 17.751 C 57.722 17.933 57.75 18.115 57.77 18.301 C 57.777 18.359 57.777 18.415 57.784 18.473 C 57.791 18.541 57.791 18.608 57.797 18.673 C 57.804 18.799 57.804 18.926 57.804 19.052" fill="rgb(255,255,255)"/><path d=" M 62.6 33.424 L 62.6 41.03 C 62.6 41.186 62.607 41.216 62.457 41.216 L 38.464 41.216 C 38.314 41.216 38.178 41.186 38.178 41.03 L 38.178 33.424 C 38.178 33.302 38.178 33.18 38.178 33.06 C 38.266 31.249 38.989 29.606 40.122 28.375 C 40.156 28.339 40.19 28.303 40.224 28.267 C 40.79 27.676 41.452 27.186 42.182 26.824 C 42.223 26.802 42.271 26.779 42.312 26.76 C 42.516 26.663 42.721 26.58 42.932 26.505 C 42.98 26.49 43.028 26.471 43.076 26.457 C 43.26 26.395 43.451 26.341 43.649 26.295 C 43.888 26.524 44.133 26.74 44.392 26.942 C 45.054 27.46 45.777 27.89 46.534 28.228 C 46.685 28.292 46.828 28.353 46.971 28.409 C 47.537 28.625 48.11 28.789 48.697 28.898 C 49.27 29.003 49.857 29.057 50.457 29.057 C 51.132 29.057 51.801 28.993 52.456 28.855 C 52.538 28.839 52.613 28.808 52.695 28.808 L 52.701 28.808 C 52.817 28.808 52.94 28.808 53.063 28.808 L 53.063 28.808 C 53.377 28.808 53.691 28.559 54.004 28.434 C 54.12 28.387 54.243 28.279 54.366 28.225 C 54.966 27.96 55.526 27.606 56.058 27.206 L 56.058 27.206 C 56.119 27.206 56.174 27.152 56.235 27.11 C 56.583 26.852 56.911 26.585 57.231 26.279 C 60.24 26.98 62.477 29.738 62.634 33.052 C 62.641 33.174 62.6 33.302 62.6 33.424" fill="rgb(255,255,255)"/><path d=" M 36.847 53.695 C 36.847 53.824 36.84 53.95 36.834 54.074 C 36.827 54.2 36.82 54.324 36.806 54.448 C 36.786 54.633 36.759 54.817 36.724 54.997 C 36.697 55.193 36.649 55.389 36.602 55.579 C 36.499 55.947 36.377 56.304 36.227 56.648 C 36.206 56.696 36.179 56.746 36.158 56.794 C 36.076 56.966 35.995 57.132 35.899 57.297 C 35.872 57.346 35.844 57.395 35.817 57.443 C 35.476 58.021 35.053 58.55 34.569 59.009 C 34.521 59.054 34.473 59.098 34.425 59.14 C 34.35 59.214 34.269 59.284 34.18 59.354 C 34.125 59.4 34.071 59.444 34.016 59.488 C 33.887 59.586 33.764 59.68 33.634 59.768 C 33.614 59.78 33.593 59.795 33.573 59.806 C 33.402 59.922 33.225 60.031 33.041 60.132 C 32.87 60.224 32.706 60.309 32.536 60.387 C 32.522 60.393 32.509 60.397 32.502 60.4 C 32.161 60.555 31.799 60.683 31.431 60.783 C 31.356 60.803 31.281 60.823 31.199 60.843 C 30.83 60.929 30.448 60.989 30.059 61.019 C 29.937 61.029 29.814 61.035 29.691 61.039 C 29.623 61.039 29.561 61.041 29.5 61.041 C 29.432 61.041 29.37 61.039 29.309 61.039 C 29.179 61.035 29.057 61.029 28.934 61.019 C 28.545 60.989 28.163 60.929 27.795 60.843 C 27.72 60.823 27.638 60.803 27.563 60.783 C 27.194 60.683 26.839 60.555 26.498 60.4 C 26.485 60.397 26.478 60.393 26.464 60.387 C 26.307 60.317 26.157 60.241 26.007 60.16 C 25.809 60.053 25.612 59.935 25.421 59.806 C 25.4 59.795 25.386 59.78 25.366 59.768 C 25.236 59.68 25.107 59.586 24.984 59.488 C 24.929 59.444 24.868 59.4 24.813 59.354 C 24.732 59.284 24.65 59.214 24.568 59.14 C 24.479 59.06 24.39 58.975 24.302 58.89 C 23.872 58.458 23.497 57.971 23.176 57.443 C 23.149 57.395 23.122 57.346 23.094 57.297 C 23.006 57.132 22.917 56.966 22.835 56.794 C 22.815 56.746 22.794 56.696 22.774 56.648 C 22.624 56.304 22.494 55.947 22.398 55.579 C 22.344 55.389 22.303 55.193 22.269 54.997 C 22.235 54.817 22.207 54.633 22.194 54.448 C 22.18 54.324 22.173 54.2 22.16 54.074 C 22.16 53.95 22.153 53.824 22.153 53.695 C 22.153 53.57 22.153 53.444 22.16 53.319 C 22.16 53.241 22.166 53.165 22.166 53.09 L 22.166 53.088 C 22.166 53.039 22.18 52.993 22.187 52.945 C 22.194 52.899 22.201 52.853 22.207 52.807 C 22.221 52.669 22.242 52.533 22.269 52.397 C 22.303 52.199 22.344 52.004 22.398 51.815 C 22.494 51.446 22.624 51.088 22.774 50.746 C 22.78 50.722 22.794 50.695 22.801 50.671 C 22.815 50.647 22.828 50.624 22.835 50.6 C 22.917 50.427 23.006 50.259 23.094 50.097 C 23.122 50.047 23.149 49.999 23.176 49.951 C 23.524 49.372 23.947 48.844 24.431 48.384 C 24.472 48.34 24.52 48.296 24.568 48.254 C 24.65 48.18 24.732 48.108 24.813 48.039 C 24.868 47.994 24.929 47.949 24.984 47.906 C 25.107 47.807 25.236 47.713 25.366 47.625 C 25.386 47.611 25.4 47.599 25.421 47.587 C 25.748 47.367 26.103 47.171 26.464 47.007 C 26.478 47 26.485 46.997 26.498 46.993 C 26.839 46.839 27.194 46.711 27.563 46.61 C 27.638 46.59 27.72 46.571 27.795 46.55 C 28.163 46.462 28.545 46.402 28.934 46.374 C 29.057 46.364 29.179 46.359 29.309 46.354 C 29.37 46.352 29.432 46.352 29.5 46.352 C 29.561 46.352 29.623 46.352 29.691 46.354 C 29.814 46.359 29.937 46.364 30.059 46.374 C 30.448 46.402 30.83 46.462 31.199 46.55 C 31.281 46.571 31.356 46.59 31.431 46.61 C 31.799 46.711 32.161 46.839 32.502 46.993 C 32.509 46.997 32.522 47 32.536 47.007 C 32.897 47.171 33.245 47.367 33.573 47.587 C 33.593 47.599 33.614 47.611 33.634 47.625 C 33.764 47.713 33.887 47.807 34.016 47.906 C 34.071 47.949 34.125 47.994 34.18 48.039 C 34.269 48.108 34.35 48.18 34.425 48.254 C 34.473 48.296 34.521 48.338 34.569 48.382 C 35.053 48.844 35.476 49.372 35.817 49.951 C 35.844 49.999 35.872 50.047 35.899 50.097 C 35.995 50.259 36.076 50.427 36.158 50.6 C 36.179 50.647 36.206 50.695 36.227 50.746 C 36.377 51.088 36.499 51.446 36.602 51.815 C 36.649 52.004 36.697 52.199 36.724 52.397 C 36.759 52.577 36.786 52.761 36.806 52.945 C 36.813 53.003 36.813 53.061 36.82 53.12 C 36.827 53.185 36.827 53.251 36.834 53.319 C 36.84 53.444 36.847 53.57 36.847 53.695" fill="rgb(255,255,255)"/><path d=" M 41.786 68.071 L 41.786 75.676 C 41.786 75.831 41.643 75.842 41.493 75.842 L 17.5 75.842 C 17.35 75.842 17.166 75.831 17.166 75.676 L 17.166 68.071 C 17.166 67.949 17.186 67.827 17.193 67.707 C 17.275 65.895 18.019 64.252 19.151 63.019 C 19.185 62.983 19.219 62.946 19.254 62.911 C 19.82 62.32 20.488 61.83 21.218 61.467 C 21.259 61.446 21.307 61.426 21.348 61.403 C 21.552 61.309 21.757 61.223 21.969 61.149 C 22.016 61.133 22.064 61.117 22.112 61.101 C 22.296 61.039 22.494 60.985 22.685 60.939 C 22.924 61.169 23.176 61.386 23.429 61.587 C 24.09 62.104 24.813 62.534 25.577 62.873 C 25.721 62.937 25.864 62.997 26.007 63.053 C 26.573 63.271 27.146 63.433 27.74 63.543 C 28.313 63.65 28.9 63.701 29.493 63.701 C 30.169 63.701 30.837 63.629 31.492 63.491 C 31.574 63.473 31.656 63.433 31.731 63.433 L 31.738 63.433 C 31.86 63.433 31.976 63.433 32.099 63.433 C 32.099 63.433 32.099 63.433 32.099 63.433 C 32.413 63.433 32.734 63.193 33.041 63.07 C 33.163 63.023 33.286 62.909 33.402 62.855 C 34.003 62.59 34.569 62.232 35.094 61.832 L 35.094 61.832 C 35.155 61.832 35.21 61.788 35.271 61.746 C 35.619 61.488 35.954 61.225 36.267 60.92 C 39.283 61.622 41.589 64.382 41.739 67.696 C 41.745 67.816 41.786 67.949 41.786 68.071" fill="rgb(255,255,255)"/><path d=" M 78.175 53.572 C 78.175 53.698 78.175 53.824 78.168 53.95 C 78.161 54.074 78.147 54.198 78.14 54.322 C 78.12 54.508 78.093 54.691 78.059 54.871 C 78.025 55.069 77.984 55.263 77.929 55.455 C 77.833 55.824 77.711 56.18 77.561 56.522 C 77.54 56.572 77.513 56.62 77.492 56.67 C 77.411 56.84 77.329 57.008 77.233 57.172 C 77.206 57.22 77.179 57.269 77.151 57.316 C 76.81 57.895 76.387 58.423 75.903 58.886 C 75.855 58.93 75.807 58.971 75.76 59.016 C 75.685 59.088 75.596 59.16 75.514 59.23 C 75.459 59.274 75.405 59.32 75.35 59.364 C 75.221 59.46 75.098 59.554 74.961 59.643 C 74.948 59.656 74.927 59.668 74.907 59.682 C 74.736 59.796 74.552 59.907 74.375 60.007 C 74.204 60.098 74.034 60.183 73.863 60.263 C 73.856 60.267 73.843 60.271 73.836 60.277 C 73.488 60.429 73.133 60.557 72.765 60.657 C 72.69 60.679 72.615 60.699 72.533 60.717 C 72.164 60.805 71.782 60.865 71.394 60.895 C 71.271 60.903 71.148 60.911 71.018 60.913 C 70.957 60.915 70.896 60.915 70.834 60.915 C 70.766 60.915 70.705 60.915 70.643 60.913 C 70.514 60.911 70.391 60.903 70.268 60.895 C 69.879 60.865 69.497 60.805 69.129 60.717 C 69.054 60.699 68.972 60.679 68.897 60.657 C 68.528 60.557 68.174 60.429 67.833 60.277 C 67.819 60.271 67.805 60.267 67.798 60.263 C 67.642 60.191 67.491 60.117 67.341 60.036 C 67.144 59.926 66.946 59.808 66.755 59.682 C 66.734 59.668 66.714 59.656 66.7 59.643 C 66.564 59.554 66.441 59.46 66.318 59.364 C 66.257 59.32 66.202 59.274 66.148 59.23 C 66.066 59.16 65.984 59.088 65.902 59.016 C 65.813 58.934 65.725 58.85 65.636 58.766 C 65.206 58.333 64.831 57.847 64.51 57.316 C 64.483 57.269 64.456 57.22 64.428 57.172 C 64.34 57.008 64.251 56.84 64.169 56.67 C 64.149 56.62 64.128 56.572 64.108 56.522 C 63.951 56.18 63.828 55.824 63.733 55.455 C 63.678 55.263 63.637 55.069 63.603 54.871 C 63.569 54.691 63.542 54.508 63.528 54.322 C 63.514 54.198 63.501 54.074 63.494 53.95 C 63.494 53.824 63.487 53.698 63.487 53.572 C 63.487 53.444 63.432 53.319 63.439 53.193 C 63.446 53.118 63.398 53.041 63.398 52.963 L 63.398 52.961 C 63.398 52.915 63.467 52.867 63.467 52.821 C 63.473 52.773 63.507 52.727 63.514 52.681 C 63.528 52.543 63.562 52.407 63.589 52.271 C 63.623 52.074 63.671 51.881 63.726 51.688 C 63.821 51.32 63.951 50.964 64.101 50.621 C 64.108 50.596 64.128 50.572 64.135 50.548 C 64.149 50.521 64.162 50.497 64.169 50.473 C 64.251 50.303 64.34 50.135 64.428 49.971 C 64.456 49.923 64.483 49.873 64.51 49.825 C 64.858 49.246 65.281 48.72 65.759 48.258 C 65.806 48.214 65.854 48.172 65.902 48.127 C 65.984 48.054 66.066 47.983 66.148 47.913 C 66.202 47.868 66.257 47.823 66.318 47.78 C 66.441 47.681 66.564 47.589 66.7 47.499 C 66.714 47.487 66.734 47.473 66.755 47.461 C 67.082 47.241 67.437 47.047 67.798 46.88 C 67.805 46.876 67.819 46.871 67.833 46.867 C 68.174 46.713 68.528 46.584 68.897 46.487 C 68.972 46.464 69.054 46.445 69.129 46.426 C 69.497 46.338 69.879 46.278 70.268 46.248 C 70.391 46.238 70.514 46.232 70.643 46.23 C 70.705 46.228 70.766 46.226 70.834 46.226 C 70.896 46.226 70.957 46.228 71.018 46.23 C 71.148 46.232 71.271 46.238 71.394 46.248 C 71.782 46.278 72.164 46.338 72.533 46.426 C 72.615 46.445 72.69 46.464 72.765 46.487 C 73.133 46.584 73.488 46.713 73.836 46.867 C 73.843 46.871 73.856 46.876 73.863 46.88 C 74.232 47.047 74.579 47.241 74.907 47.461 C 74.927 47.473 74.948 47.487 74.961 47.499 C 75.098 47.589 75.221 47.681 75.35 47.78 C 75.405 47.823 75.459 47.868 75.514 47.913 C 75.596 47.983 75.685 48.054 75.76 48.127 C 75.807 48.17 75.855 48.214 75.903 48.256 C 76.387 48.718 76.803 49.246 77.151 49.825 C 77.179 49.873 77.206 49.923 77.233 49.971 C 77.329 50.135 77.411 50.303 77.492 50.473 C 77.513 50.521 77.54 50.572 77.561 50.621 C 77.711 50.964 77.833 51.32 77.929 51.688 C 77.984 51.881 78.025 52.074 78.059 52.271 C 78.093 52.453 78.12 52.635 78.14 52.821 C 78.147 52.877 78.147 52.935 78.154 52.993 C 78.161 53.06 78.161 53.127 78.168 53.193 C 78.175 53.319 78.175 53.444 78.175 53.572" fill="rgb(255,255,255)"/><path d=" M 83.018 67.945 L 83.018 75.55 C 83.018 75.706 82.977 75.842 82.827 75.842 L 58.834 75.842 C 58.684 75.842 58.596 75.706 58.596 75.55 L 58.596 67.945 C 58.596 67.823 58.568 67.7 58.575 67.58 C 58.664 65.769 59.373 64.126 60.506 62.894 C 60.54 62.856 60.567 62.821 60.601 62.787 C 61.167 62.196 61.822 61.706 62.559 61.343 C 62.6 61.321 62.641 61.3 62.689 61.278 C 62.887 61.184 63.091 61.1 63.303 61.025 C 63.351 61.007 63.398 60.991 63.446 60.978 C 63.63 60.913 63.828 60.859 64.019 60.815 C 64.258 61.043 64.51 61.259 64.763 61.461 C 65.424 61.98 66.148 62.41 66.912 62.748 C 67.055 62.811 67.198 62.871 67.341 62.927 C 67.908 63.145 68.481 63.309 69.067 63.417 C 69.647 63.523 70.234 63.577 70.827 63.577 C 71.503 63.577 72.171 63.467 72.826 63.329 C 72.908 63.311 72.99 63.233 73.065 63.233 L 73.065 63.233 C 73.188 63.233 73.311 63.233 73.433 63.233 L 73.433 63.233 C 73.754 63.233 74.061 63.031 74.375 62.909 C 74.498 62.86 74.62 62.827 74.736 62.774 C 75.337 62.51 75.896 62.232 76.428 61.832 L 76.428 61.832 C 76.49 61.832 76.544 61.726 76.606 61.682 C 76.953 61.424 77.281 61.131 77.602 60.825 C 80.617 61.527 82.868 64.272 83.025 67.586 C 83.032 67.707 83.018 67.823 83.018 67.945" fill="rgb(255,255,255)"/><path d=" M 50.293 43.032 L 49.87 43.032 C 49.195 43.032 48.636 43.586 48.636 44.263 L 48.636 54.44 C 48.636 55.117 49.195 55.672 49.87 55.672 L 50.293 55.672 C 50.976 55.672 51.528 55.117 51.528 54.44 L 51.528 44.263 C 51.528 43.586 50.976 43.032 50.293 43.032 Z " fill="rgb(255,255,255)"/><path d=" M 49.065 53.141 L 48.84 53.429 C 48.404 53.972 48.499 54.768 49.038 55.199 L 56.945 61.495 C 57.484 61.928 58.282 61.838 58.712 61.295 L 58.944 61.007 C 59.373 60.465 59.285 59.668 58.746 59.236 L 50.839 52.942 C 50.293 52.509 49.495 52.599 49.065 53.141 Z " fill="rgb(255,255,255)"/><path d=" M 40.927 61.295 L 40.695 61.007 C 40.265 60.465 40.354 59.668 40.9 59.236 L 48.806 52.942 C 49.345 52.509 50.143 52.599 50.573 53.141 L 50.805 53.429 C 51.235 53.972 51.146 54.768 50.6 55.199 L 42.694 61.495 C 42.155 61.928 41.357 61.838 40.927 61.295 Z " fill="rgb(255,255,255)"/></g></g></svg>