<?xml version="1.0" standalone="no"?><!-- Generator: Gravit.io --><svg xmlns="http://www.w3.org/2000/svg" xmlns:xlink="http://www.w3.org/1999/xlink" style="isolation:isolate" viewBox="0 0 100 100" width="100" height="100"><defs><clipPath id="_clipPath_y9ILsKiaQr2OU7yfr3eq9F3docKzAWPE"><rect width="100" height="100"/></clipPath></defs><g clip-path="url(#_clipPath_y9ILsKiaQr2OU7yfr3eq9F3docKzAWPE)"><g id="glupIdea"><path d=" M 99.5 50 C 99.5 77.342 77.335 99.5 50 99.5 C 22.658 99.5 0.5 77.342 0.5 50 C 0.5 22.665 22.658 0.5 50 0.5 C 77.335 0.5 99.5 22.665 99.5 50 Z " fill="rgb(206,70,32)"/><path d=" M 49.993 69.838 C 47.449 69.838 44.911 69.825 42.373 69.852 C 41.643 69.859 41.111 69.613 40.62 69.081 C 38.764 67.109 37.618 64.872 37.434 62.109 C 37.284 59.946 36.302 58.016 35.033 56.269 C 34.132 55.028 33.17 53.82 32.181 52.64 C 28.791 48.581 27.904 43.819 28.32 38.717 C 29.077 29.473 36.247 21.43 46.214 19.731 C 58.166 17.705 69.388 25.448 71.394 36.943 C 72.424 42.878 71.482 48.445 67.355 53.165 C 66.618 54.011 65.922 54.905 65.247 55.812 C 63.596 58.009 62.566 60.451 62.361 63.228 C 62.177 65.793 60.67 67.689 58.957 69.429 C 58.677 69.709 58.118 69.818 57.688 69.825 C 55.123 69.859 52.558 69.838 49.993 69.838" fill="rgb(255,255,255)"/><path d=" M 49.911 76.762 C 47.66 76.762 45.402 76.769 43.151 76.762 C 42.209 76.762 41.664 76.333 41.643 75.603 C 41.616 74.852 42.203 74.361 43.164 74.361 C 47.721 74.361 52.279 74.354 56.842 74.361 C 57.763 74.368 58.316 74.839 58.309 75.575 C 58.302 76.312 57.763 76.756 56.829 76.762 C 56.679 76.769 56.522 76.762 56.372 76.762 C 54.216 76.762 52.067 76.762 49.911 76.762" fill="rgb(255,255,255)"/><path d=" M 50 70.923 C 52.279 70.923 54.557 70.923 56.836 70.923 C 57.777 70.93 58.309 71.359 58.309 72.103 C 58.309 72.847 57.784 73.283 56.836 73.283 C 52.251 73.29 47.667 73.29 43.083 73.283 C 42.162 73.283 41.616 72.792 41.643 72.062 C 41.67 71.346 42.189 70.93 43.083 70.923 C 45.388 70.923 47.694 70.923 50 70.923" fill="rgb(255,255,255)"/><path d=" M 49.98 80.201 C 48.056 80.201 46.132 80.208 44.215 80.201 C 43.314 80.201 42.857 79.778 42.864 79.007 C 42.878 78.236 43.328 77.847 44.249 77.847 C 48.069 77.84 51.89 77.84 55.71 77.847 C 56.617 77.847 57.088 78.243 57.102 79 C 57.115 79.785 56.631 80.201 55.676 80.201 C 53.773 80.208 51.876 80.201 49.98 80.201 Z " fill="rgb(255,255,255)"/><path d=" M 49.966 83.68 C 49.093 83.68 48.219 83.687 47.346 83.68 C 46.405 83.666 45.893 83.23 45.907 82.459 C 45.914 81.722 46.412 81.279 47.305 81.279 C 49.1 81.265 50.894 81.265 52.695 81.279 C 53.554 81.285 54.08 81.77 54.073 82.493 C 54.059 83.216 53.534 83.666 52.661 83.68 C 51.76 83.687 50.86 83.68 49.966 83.68 Z " fill="rgb(255,255,255)"/><path d=" M 46.548 46.412 C 46.466 45.143 46.418 43.942 46.303 42.755 C 46.214 41.902 45.518 41.398 44.693 41.466 C 43.867 41.541 43.342 42.148 43.342 43.021 C 43.342 44.515 44.563 45.845 46.548 46.412 Z  M 53.438 46.378 C 55.328 45.996 56.706 44.467 56.645 42.912 C 56.617 42.127 56.092 41.554 55.335 41.473 C 54.537 41.384 53.793 41.855 53.704 42.639 C 53.561 43.867 53.52 45.115 53.438 46.378 Z  M 48.97 66.229 C 48.479 66.229 48.131 66.229 47.721 66.229 C 47.612 64.408 47.503 62.621 47.394 60.833 C 47.148 56.72 46.889 52.599 46.671 48.472 C 46.644 47.988 46.432 47.824 46.023 47.605 C 45.04 47.087 44.017 46.555 43.199 45.825 C 42.243 44.965 41.902 43.758 42.114 42.455 C 42.339 41.084 43.39 40.231 44.815 40.217 C 46.193 40.211 47.312 41.036 47.503 42.366 C 47.687 43.628 47.742 44.918 47.803 46.193 C 47.824 46.671 47.947 46.91 48.451 46.903 C 49.447 46.896 50.443 46.896 51.439 46.917 C 51.992 46.93 52.176 46.712 52.19 46.146 C 52.224 44.918 52.306 43.683 52.456 42.462 C 52.586 41.37 53.261 40.627 54.311 40.333 C 55.355 40.033 56.365 40.204 57.156 41.009 C 58.07 41.943 58.091 43.076 57.729 44.242 C 57.17 46.023 55.778 46.957 54.141 47.558 C 53.541 47.776 53.329 48.049 53.295 48.677 C 53.029 53.595 52.729 58.507 52.442 63.419 C 52.388 64.34 52.319 65.254 52.258 66.216 C 51.876 66.216 51.528 66.216 51.016 66.216 C 51.364 60.233 51.712 54.236 52.053 48.213 C 50.675 48.213 49.386 48.213 47.933 48.213 C 48.274 54.175 48.622 60.165 48.97 66.229" fill="rgb(206,70,32)"/></g></g></svg>